<svg width="60" height="60" viewBox="0 0 60 60" fill="none" xmlns="http://www.w3.org/2000/svg">
<g clip-path="url(#clip0)">
<path d="M59.3857 30.7246C59.35 46.8993 46.2273 60 30.0449 60C28.179 60 26.3535 59.8256 24.5847 59.4928C22.7925 59.1554 22.1164 56.9426 23.4055 55.6531L46.7061 32.3524C47.6413 31.4168 47.6413 29.9002 46.7061 28.965L20.6094 2.86788C23.6032 1.85165 26.814 1.30508 30.1547 1.31744C46.2895 1.37649 59.4209 14.5894 59.3857 30.7246Z" fill="#FD6C55"/>
<path d="M51.7333 32.3534L24.5929 59.4956C21.9617 59.0012 19.4545 58.1543 17.1217 57.0076C17.0371 56.966 5.39429 46.5807 5.37369 46.5491C2.41837 41.9701 0.703125 36.5149 0.703125 30.6596C0.703125 16.3179 10.9937 4.38126 24.5934 1.82602L51.7333 28.9659C52.6689 29.9016 52.6689 31.4182 51.7333 32.3534Z" fill="#E43950"/>
<path d="M55.6732 3.59299V19.1615C55.6732 22.4689 52.9921 25.1495 49.6852 25.1495V41.916H43.6972V25.1495C40.3899 25.1495 37.7092 22.4689 37.7092 19.1615V3.59299C37.7092 1.69464 39.1814 0.140076 41.0459 0.00915527C41.1846 -0.000915527 41.3018 0.110321 41.3018 0.249023V17.3653C41.3018 18.3861 42.1537 19.2082 43.185 19.1597C44.1513 19.1139 44.8947 18.2817 44.8947 17.3145V1.79626C44.8947 0.804291 45.699 0 46.691 0C47.6834 0 48.4877 0.804291 48.4877 1.79626V17.3653C48.4877 18.3861 49.3392 19.2082 50.371 19.1597C51.3369 19.1139 52.0803 18.2817 52.0803 17.3145V0.249023C52.0803 0.110321 52.1979 -0.000915527 52.3362 0.00915527C54.2011 0.140076 55.6732 1.69464 55.6732 3.59299Z" fill="#FDD78D"/>
<path d="M46.0927 21.5569C43.9677 21.5569 42.1674 20.1731 41.5402 18.2578C41.8652 18.8245 42.4901 19.1972 43.1987 19.1587C44.1595 19.107 44.8947 18.2766 44.8947 17.3144V1.7962C44.8947 0.775383 45.7466 -0.0463027 46.778 0.00176241C47.7443 0.0475388 48.4877 0.879753 48.4877 1.84701V17.3652C48.4877 18.386 49.3391 19.2081 50.3709 19.1596C51.3373 19.1138 52.0807 18.2816 52.0807 17.3144V0.248955C52.0807 0.110252 52.1979 -0.000984171 52.3366 0.00908663C54.201 0.140007 55.6732 1.69457 55.6732 3.59292V19.1615V19.1871C55.6677 20.5027 54.5769 21.5569 53.2613 21.5569H46.0927Z" fill="#FFE899"/>
<path d="M46.2923 55.09C44.4841 56.3086 42.5015 57.3253 40.421 58.1122C40.388 57.816 40.3821 57.5097 40.4077 57.2007L42.0218 37.8296C42.2241 35.4011 44.2543 33.533 46.6914 33.533C47.7612 33.533 48.7527 33.8932 49.5456 34.503C48.533 35.2816 47.8445 36.4673 47.731 37.8296L46.2923 55.09Z" fill="#F4AA39"/>
<path d="M44.8943 55.9716L46.4058 37.8296C46.5427 36.188 47.515 34.8033 48.8832 34.0777C50.2515 34.8033 51.2238 36.188 51.3607 37.8296L52.3513 49.7204C50.2359 52.1942 47.7315 54.3113 44.8943 55.9716Z" fill="#FDBF43"/>
<path d="M50.8827 35.928H42.4997C41.8382 35.928 41.3022 35.392 41.3022 34.7305C41.3022 34.069 41.8382 33.533 42.4997 33.533H50.8827C51.5442 33.533 52.0807 34.069 52.0807 34.7305C52.0807 35.392 51.5442 35.928 50.8827 35.928Z" fill="#F1CA50"/>
<path d="M50.8828 35.928H45.9728C45.3113 35.928 44.7753 35.392 44.7753 34.7305C44.7753 34.069 45.3113 33.533 45.9728 33.533H50.8828C51.5442 33.533 52.0807 34.069 52.0807 34.7305C52.0807 35.392 51.5442 35.928 50.8828 35.928Z" fill="#FDF385"/>
<path d="M8.98087 51.0841C7.63596 49.6976 6.42654 48.1782 5.37415 46.5481V2.9956C5.37415 2.00363 6.17844 1.19934 7.17087 1.19934H13.4317C12.2887 1.19934 11.3622 2.12585 11.3622 3.26843V50.1192C11.3622 51.3643 9.84787 51.9777 8.98087 51.0841Z" fill="#B6C4CF"/>
<path d="M32.3241 1.19934H10.7671C9.77512 1.19934 8.97083 2.00363 8.97083 2.99561V51.0718C11.3141 53.4915 14.0662 55.5061 17.1218 57.0076H32.3241C33.3161 57.0076 34.1204 56.2033 34.1204 55.2113V2.99561C34.1204 2.00363 33.3161 1.19934 32.3241 1.19934Z" fill="#C5D3DD"/>
<path d="M19.7493 55.0914C18.7569 55.0914 17.9526 54.2871 17.9526 53.2951C17.9526 52.3027 18.7569 51.4984 19.7493 51.4984C20.7413 51.4984 21.5456 52.3027 21.5456 53.2951C21.5456 54.2871 20.7413 55.0914 19.7493 55.0914Z" fill="#B6C4CF"/>
<path d="M29.6256 49.102H9.8653C8.87332 49.102 8.06903 48.2973 8.06903 47.3053V6.58676C8.06903 5.59479 8.87332 4.7905 9.8653 4.7905H29.6256C30.6176 4.7905 31.4218 5.59479 31.4218 6.58676V47.3053C31.4218 48.2973 30.6176 49.102 29.6256 49.102Z" fill="#FDF7BD"/>
<path d="M29.3262 22.0354C29.3262 22.5655 29.0245 22.9958 28.6523 22.9958H10.5986C10.2269 22.9958 9.92523 22.5655 9.92523 22.0354C9.92523 21.5048 10.2264 21.0745 10.5986 21.0745H28.6523C29.0245 21.0745 29.3262 21.5048 29.3262 22.0354ZM11.0326 19.1643C11.6647 15.8194 14.2017 13.1493 17.4728 12.3212C17.4156 12.2456 17.3804 12.1527 17.3804 12.0506C17.3804 11.8025 17.5813 11.6016 17.8294 11.6016V11.1525C17.8294 10.1619 18.6351 9.35577 19.6257 9.35577C20.6163 9.35577 21.422 10.1619 21.422 11.1525V11.6016C21.6701 11.6016 21.8715 11.8025 21.8715 12.0506C21.8715 12.1527 21.8358 12.2456 21.7786 12.3212C25.0497 13.1493 27.5871 15.8194 28.2188 19.1643C28.2697 19.4344 28.0641 19.6852 27.7895 19.6852H11.4619C11.1873 19.6852 10.9818 19.4344 11.0326 19.1643ZM18.7276 11.6016H20.5238V11.1525C20.5238 10.6572 20.121 10.2544 19.6257 10.2544C19.1304 10.2544 18.7276 10.6572 18.7276 11.1525V11.6016Z" fill="#FBC56D"/>
<path d="M24.5357 27.8444V28.4431C24.5357 28.7736 24.2679 29.0419 23.9369 29.0419H15.5539C15.2234 29.0419 14.9551 28.7736 14.9551 28.4431V27.8444C14.9551 27.5139 15.2234 27.2456 15.5539 27.2456H23.9369C24.2679 27.2456 24.5357 27.5139 24.5357 27.8444Z" fill="#F5B65D"/>
<path d="M13.7572 32.9343V32.3355C13.7572 32.0045 14.0255 31.7368 14.3564 31.7368H25.1345C25.465 31.7368 25.7332 32.0045 25.7332 32.3355V32.9343C25.7332 33.2648 25.465 33.533 25.1345 33.533H14.3564C14.0255 33.533 13.7572 33.2648 13.7572 32.9343ZM27.5299 35.3293H11.9609C11.6304 35.3293 11.3622 35.5975 11.3622 35.928V36.5268C11.3622 36.8578 11.6304 37.1255 11.9609 37.1255H27.5299C27.8604 37.1255 28.1287 36.8578 28.1287 36.5268V35.928C28.1287 35.5975 27.8604 35.3293 27.5299 35.3293ZM25.1345 38.9223H14.3564C14.0255 38.9223 13.7572 39.1905 13.7572 39.521V40.1198C13.7572 40.4503 14.0255 40.7185 14.3564 40.7185H25.1345C25.465 40.7185 25.7332 40.4503 25.7332 40.1198V39.521C25.7332 39.1905 25.4654 38.9223 25.1345 38.9223Z" fill="#F5DC90"/>
<path d="M17.2142 45.5187C17.2142 46.1747 16.6818 46.7066 16.0258 46.7066C15.3699 46.7066 14.838 46.1747 14.838 45.5187C14.838 44.8622 15.3699 44.3303 16.0258 44.3303C16.6823 44.3303 17.2142 44.8622 17.2142 45.5187ZM19.7452 44.3303C19.0892 44.3303 18.5573 44.8622 18.5573 45.5187C18.5573 46.1747 19.0892 46.7066 19.7452 46.7066C20.4016 46.7066 20.9335 46.1747 20.9335 45.5187C20.9335 44.8622 20.4016 44.3303 19.7452 44.3303ZM23.465 44.3303C22.8085 44.3303 22.2766 44.8622 22.2766 45.5187C22.2766 46.1747 22.8085 46.7066 23.465 46.7066C24.1209 46.7066 24.6529 46.1747 24.6529 45.5187C24.6529 44.8622 24.1209 44.3303 23.465 44.3303Z" fill="#FFE899"/>
</g>
<defs>
<clipPath id="clip0">
<rect width="60" height="60" fill="white"/>
</clipPath>
</defs>
</svg>
