<svg width="60" height="60" viewBox="0 0 60 60" fill="none" xmlns="http://www.w3.org/2000/svg">
<g clip-path="url(#clip0)">
<path d="M59.3857 30.5342C59.4164 38.0099 56.6505 44.8389 52.0752 50.0358C50.8273 51.4531 48.4877 50.5655 48.4877 48.6772V42.8879C48.4877 24.4931 33.5756 9.58099 15.1808 9.58099C13.2408 9.58099 12.5047 7.05734 14.133 6.00356C18.5115 3.16955 23.6852 1.47537 29.2534 1.32797C45.6573 0.893548 59.3175 14.1247 59.3857 30.5342Z" fill="#57B79D"/>
<path d="M14.1426 5.99716L18.0588 6.8129C19.5461 6.50299 20.9427 7.6387 20.9427 9.15802L20.9409 55.5798C20.9409 57.0548 19.422 58.0568 18.0753 57.4548C7.83646 52.8754 0.703125 42.6009 0.703125 30.6587C0.703125 20.3146 6.05621 11.2221 14.1426 5.99716Z" fill="#FFE899"/>
<path d="M52.0802 1.19791V50.0299C46.7033 56.1419 38.8248 59.9999 30.0444 59.9999C25.7748 59.9999 21.7181 59.0872 18.0588 57.447V6.81284L50.6383 0.0255789C51.3821 -0.129603 52.0802 0.438482 52.0802 1.19791Z" fill="#FDF7BD"/>
<path d="M30.5237 35.6287V36.2274C30.5237 36.5584 30.2554 36.8262 29.9245 36.8262H21.5414C21.2109 36.8262 20.9427 36.5584 20.9427 36.2274V35.6287C20.9427 35.2982 21.2109 35.0299 21.5414 35.0299H29.9245C30.2554 35.0299 30.5237 35.2982 30.5237 35.6287ZM45.4935 35.0299H37.1104C36.7795 35.0299 36.5117 35.2982 36.5117 35.6287V36.2274C36.5117 36.5584 36.7795 36.8262 37.1104 36.8262H45.4935C45.824 36.8262 46.0922 36.5584 46.0922 36.2274V35.6287C46.0922 35.2982 45.824 35.0299 45.4935 35.0299Z" fill="#F5B65D"/>
<path d="M32.9187 49.102V49.7008C32.9187 50.0313 32.6505 50.2995 32.3199 50.2995H21.5414C21.2109 50.2995 20.9427 50.0313 20.9427 49.7008V49.102C20.9427 48.7711 21.2109 48.5028 21.5414 48.5028H32.3199C32.6505 48.5028 32.9187 48.7711 32.9187 49.102ZM21.5414 46.7065H31.1224C31.4529 46.7065 31.7212 46.4383 31.7212 46.1078V45.509C31.7212 45.1785 31.4529 44.9103 31.1224 44.9103H21.5414C21.2109 44.9103 20.9427 45.1785 20.9427 45.509V46.1078C20.9427 46.4383 21.2109 46.7065 21.5414 46.7065ZM37.1104 46.7065H46.691C47.0219 46.7065 47.2897 46.4383 47.2897 46.1078V45.509C47.2897 45.1785 47.0219 44.9103 46.691 44.9103H37.1104C36.7795 44.9103 36.5117 45.1785 36.5117 45.509V46.1078C36.5117 46.4383 36.7795 46.7065 37.1104 46.7065ZM47.889 41.3173H37.1104C36.7795 41.3173 36.5117 41.5855 36.5117 41.916V42.5148C36.5117 42.8458 36.7795 43.1136 37.1104 43.1136H47.889C48.2195 43.1136 48.4877 42.8458 48.4877 42.5148V41.916C48.4877 41.5855 48.2195 41.3173 47.889 41.3173ZM47.889 48.5028H37.1104C36.7795 48.5028 36.5117 48.7711 36.5117 49.102V49.7008C36.5117 50.0313 36.7795 50.2995 37.1104 50.2995H47.889C48.2195 50.2995 48.4877 50.0313 48.4877 49.7008V49.102C48.4877 48.7711 48.2195 48.5028 47.889 48.5028ZM32.3199 41.3173H21.5414C21.2109 41.3173 20.9427 41.5855 20.9427 41.916V42.5148C20.9427 42.8458 21.2109 43.1136 21.5414 43.1136H32.3199C32.6505 43.1136 32.9187 42.8458 32.9187 42.5148V41.916C32.9187 41.5855 32.6505 41.3173 32.3199 41.3173Z" fill="#F5DC90"/>
<path d="M38.308 53.5927C38.308 54.0889 37.9056 54.4908 37.4098 54.4908C36.9136 54.4908 36.5117 54.0889 36.5117 53.5927C36.5117 53.097 36.9136 52.6946 37.4098 52.6946C37.9056 52.6946 38.308 53.097 38.308 53.5927ZM40.2214 52.6946C39.7257 52.6946 39.3233 53.097 39.3233 53.5927C39.3233 54.0889 39.7257 54.4908 40.2214 54.4908C40.7176 54.4908 41.12 54.0889 41.12 53.5927C41.12 53.097 40.7176 52.6946 40.2214 52.6946ZM43.0335 52.6946C42.5372 52.6946 42.1353 53.097 42.1353 53.5927C42.1353 54.0889 42.5372 54.4908 43.0335 54.4908C43.5292 54.4908 43.9316 54.0889 43.9316 53.5927C43.9316 53.097 43.5292 52.6946 43.0335 52.6946ZM21.8408 52.6946C21.3446 52.6946 20.9427 53.097 20.9427 53.5927C20.9427 54.0889 21.3446 54.4908 21.8408 54.4908C22.337 54.4908 22.739 54.0889 22.739 53.5927C22.739 53.097 22.337 52.6946 21.8408 52.6946ZM24.6529 52.6946C24.1566 52.6946 23.7543 53.097 23.7543 53.5927C23.7543 54.0889 24.1566 54.4908 24.6529 54.4908C25.1486 54.4908 25.551 54.0889 25.551 53.5927C25.551 53.097 25.1486 52.6946 24.6529 52.6946ZM27.4644 52.6946C26.9682 52.6946 26.5663 53.097 26.5663 53.5927C26.5663 54.0889 26.9682 54.4908 27.4644 54.4908C27.9607 54.4908 28.3626 54.0889 28.3626 53.5927C28.3626 53.097 27.9607 52.6946 27.4644 52.6946Z" fill="#FFE899"/>
<path d="M38.9035 29.2081H21.8655C21.356 29.2081 20.9427 28.7952 20.9427 28.2852C20.9427 27.7753 21.356 27.3619 21.8655 27.3619H35.7317C36.693 28.1131 37.7591 28.7366 38.9035 29.2081ZM23.0489 26.131H34.3597C31.9862 23.6934 30.5264 16.4026 30.5315 16.2584C26.4166 17.5951 23.2773 21.0942 22.4606 25.4173C22.3906 25.7877 22.6721 26.131 23.0489 26.131Z" fill="#F8BB5E"/>
<path d="M47.5296 28.2852C47.5296 28.7952 47.1162 29.2081 46.6063 29.2081H36.9411C36.0141 28.6844 35.1485 28.0646 34.3579 27.3619H46.6063C47.1162 27.3619 47.5296 27.7753 47.5296 28.2852ZM45.423 26.131H33.1242C30.8762 23.6119 29.4676 20.3288 29.3372 16.7189C29.9606 16.4392 30.6116 16.2103 31.2859 16.0396C31.2071 15.9361 31.1591 15.8084 31.1591 15.6688C31.1591 15.3287 31.4346 15.0531 31.7743 15.0531V14.4379C31.7743 13.0801 32.8789 11.976 34.2361 11.976C35.5939 11.976 36.698 13.0801 36.698 14.4379V15.0531C37.0377 15.0531 37.3132 15.3287 37.3132 15.6688C37.3132 15.8084 37.2647 15.9361 37.1864 16.0396C41.6693 17.1748 45.146 20.8333 46.0117 25.4173C46.0817 25.7877 45.7997 26.131 45.423 26.131ZM35.4671 14.4379C35.4671 13.759 34.915 13.2069 34.2361 13.2069C33.5573 13.2069 33.0052 13.759 33.0052 14.4379V15.0531H35.4671V14.4379Z" fill="#FBC56D"/>
<path d="M48.4877 0.599292V15.694C48.4877 15.8639 48.3165 15.9797 48.159 15.9165L45.4935 14.8504L42.8279 15.9165C42.6704 15.9797 42.4997 15.8639 42.4997 15.694V1.59722C42.4997 1.3134 42.6984 1.0685 42.9762 1.01082L47.7667 0.0128964C48.1384 -0.0644656 48.4877 0.219348 48.4877 0.599292Z" fill="#E43950"/>
<path d="M48.4877 0.599292V11.7985C48.1604 12.1409 47.7008 12.3547 47.1904 12.3547C46.198 12.3547 45.3937 11.5504 45.3937 10.5584V0.507281L47.7667 0.0128964C48.1384 -0.0644656 48.4877 0.219348 48.4877 0.599292Z" fill="#EA5569"/>
</g>
<defs>
<clipPath id="clip0">
<rect width="60" height="60" fill="white"/>
</clipPath>
</defs>
</svg>
