<svg id="Capa_1" enable-background="new 0 0 512 512" height="512" viewBox="0 0 512 512" width="512" xmlns="http://www.w3.org/2000/svg"><g><path d="m216 262h-100c-8.284 0-15-6.716-15-15v-30c0-24.813 20.187-45 45-45h40c24.813 0 45 20.187 45 45v30c0 8.284-6.716 15-15 15z" fill="#ff7c48"/><path d="m336 262c-8.284 0-15-6.716-15-15v-40c0-8.284 6.716-15 15-15s15 6.716 15 15v40c0 8.284-6.716 15-15 15z" fill="#ff8659"/><path d="m396 262c-8.284 0-15-6.716-15-15v-40c0-8.284 6.716-15 15-15s15 6.716 15 15v40c0 8.284-6.716 15-15 15z" fill="#ff8659"/><g><path d="m56 262c-8.284 0-15-6.716-15-15v-147c0-8.284 6.716-15 15-15s15 6.716 15 15v147c0 8.284-6.716 15-15 15z" fill="#c6865c"/><path d="m456 262c-8.284 0-15-6.716-15-15v-147c0-8.284 6.716-15 15-15s15 6.716 15 15v147c0 8.284-6.716 15-15 15z" fill="#af705c"/></g><path d="m416 512h-30c-8.284 0-15-6.716-15-15v-60c0-8.284 6.716-15 15-15h30c8.284 0 15 6.716 15 15v60c0 8.284-6.716 15-15 15z" fill="#3f4a4a"/><path d="m466 452h-420c-8.284 0-15-6.716-15-15v-145h450v145c0 8.284-6.716 15-15 15z" fill="#c6865c"/><g><path d="m256 292v160h210c8.284 0 15-6.716 15-15v-145z" fill="#af705c"/></g><path d="m497 232h-482c-8.284 0-15 6.716-15 15v45c0 8.284 6.716 15 15 15h482c8.284 0 15-6.716 15-15v-45c0-8.284-6.716-15-15-15z" fill="#ffdd54"/><path d="m497 232h-241v75h241c8.284 0 15-6.716 15-15v-45c0-8.284-6.716-15-15-15z" fill="#ffb454"/><path d="m509.417 68.292-30-60c-2.541-5.082-7.735-8.292-13.417-8.292h-420c-5.682 0-10.875 3.21-13.416 8.292l-30 60c-1.269 2.537-1.733 5.259-1.521 7.894 1.272 25.753 22.623 46.314 48.687 46.314 17.347 0 32.607-9.108 41.25-22.793 8.643 13.685 23.903 22.793 41.25 22.793s32.607-9.108 41.25-22.793c8.643 13.685 23.903 22.793 41.25 22.793s32.607-9.108 41.25-22.793c8.643 13.685 23.903 22.793 41.25 22.793s32.607-9.108 41.25-22.793c8.643 13.685 23.903 22.793 41.25 22.793s32.607-9.108 41.25-22.793c8.643 13.685 23.903 22.793 41.25 22.793 26.064 0 47.415-20.561 48.688-46.314.212-2.635-.253-5.357-1.521-7.894z" fill="#ff7c48"/><circle cx="156" cy="437" fill="#616173" r="60"/><path d="m156 377v120c33.137 0 60-26.863 60-60s-26.863-60-60-60z" fill="#3f4a4a"/><path d="m156 512c-41.355 0-75-33.645-75-75s33.645-75 75-75 75 33.645 75 75-33.645 75-75 75zm0-120c-24.813 0-45 20.187-45 45s20.187 45 45 45 45-20.187 45-45-20.187-45-45-45z" fill="#7a7a93"/><path d="m156 362v30c24.813 0 45 20.187 45 45s-20.187 45-45 45v30c41.355 0 75-33.645 75-75s-33.645-75-75-75z" fill="#616173"/><circle cx="156" cy="437" fill="#c6865c" r="15"/><path d="m171 437c0-8.284-6.716-15-15-15v30c8.284 0 15-6.716 15-15z" fill="#af705c"/><g><g><path d="m297.25 122.5c17.347 0 32.607-9.108 41.25-22.793 8.643 13.685 23.903 22.793 41.25 22.793s32.607-9.108 41.25-22.793c8.643 13.685 23.903 22.793 41.25 22.793 26.064 0 47.415-20.561 48.688-46.314.212-2.635-.253-5.357-1.521-7.894l-30-60c-2.541-5.082-7.735-8.292-13.417-8.292h-210v99.707c8.643 13.685 23.903 22.793 41.25 22.793z" fill="#ff4a4a"/></g></g></g></svg>