<svg id="Capa_1" enable-background="new 0 0 495.309 495.309" height="512" viewBox="0 0 495.309 495.309" width="512" xmlns="http://www.w3.org/2000/svg"><g><path d="m356.071 363.582c-.012 22.537-16.593 41.631-38.906 44.821-9.667 1.382-19.548 2.098-29.598 2.098h-79.827c-10.474 0-20.766-.778-30.823-2.277-22.216-3.311-38.681-22.35-38.681-44.811v-.183-51.87h217.834v52.222z" fill="#e4e1e5"/><path d="m495.309 158.098v9.319c0 114.732-93.009 207.741-207.741 207.741h-79.827c-114.732-.001-207.741-93.01-207.741-207.742v-9.319l66.577-33.981h362.532z" fill="#f8f7f8"/><path d="m82.689 167.416v-9.319l66.577-33.981h-82.689l-66.577 33.982v9.319c0 114.732 93.009 207.741 207.741 207.741h79.827c.479 0 .937-.001 1.415-.005-114.072-.772-206.294-93.483-206.294-207.737z" fill="#efedee"/><g><path d="m495.304 158.098c0 6.63-2.98 13.06-8.57 19.18-28.49 31.17-124.73 54.11-239.08 54.11-111.91 0-206.48-21.97-237.16-52.13-6.82-6.7-10.49-13.8-10.49-21.16 0-40.48 110.87-73.29 247.65-73.29s247.65 32.81 247.65 73.29z" fill="#e4e1e5"/></g><g><path d="m79.734 179.257c0-36.323 35.782-68.895 92.347-90.974-99.807 9.456-172.077 37.137-172.077 69.815 0 7.36 3.67 14.46 10.49 21.16 14.482 14.237 43.206 26.647 81.265 35.785-7.815-11.305-12.025-23.325-12.025-35.786z" fill="#d6d1d6"/><g id="XMLID_1_"><g><path d="m480.606 174.484c3.041 1.361 3.658 5.437 1.125 7.602-33.574 28.693-125.69 49.303-234.077 49.303-106.77 0-197.756-19.998-232.532-48.027-2.41-1.942-2.128-5.695.561-7.227 17.7-10.082 42.603-18.88 72.689-25.797 2.263-.52 4.564-.863 6.878-1.051l189.415-15.339 136.932 18.806c.681.094 1.349.221 2.015.392 19.537 5.029 45.37 16.134 56.994 21.338z" fill="#d99684"/></g></g><g><path d="m372.997 124.487c2.851-3.691 7.265-6.129 12.291-6.294 8.939-.294 16.424 6.714 16.718 15.654l.08 2.438c.087 2.629 2.214 4.748 4.842 4.826 8.94.264 15.974 7.725 15.71 16.665-.264 8.939-7.724 15.974-16.665 15.71-19.685-.58-35.612-16.454-36.259-36.137l-.08-2.438c-.128-3.913 1.143-7.549 3.363-10.424z" fill="#d1836c"/></g><g><path d="m269.719 138.497c-.267-.941-.454-1.899-.548-2.866-.457-4.726 1.156-9.615 4.845-13.194 6.395-6.206 16.707-5.826 23.018.466l1.417 1.413c1.88 1.874 4.876 1.926 6.868.173 6.698-5.896 16.908-5.264 22.826 1.422 4.287 4.843 5.131 11.532 2.745 17.11l-6.769 6.204c-6.469 5.929-14.998 9.247-23.764 8.862-.126-.006-.253-.012-.379-.019-8.811-.475-17.013-4.662-22.874-11.259z" fill="#d1836c"/></g><path d="m182.188 137.093c3.513-2.911 8.22-4.338 13.069-3.506l2.404.412c2.592.444 5.097-1.213 5.702-3.772 2.058-8.704 10.782-14.092 19.486-12.034 8.703 2.057 14.092 10.781 12.034 19.486-4.531 19.165-23.285 31.571-42.695 28.243l-2.404-.412c-3.859-.661-7.165-2.639-9.534-5.392-.135-.156-.249-.328-.378-.49l-10.203-11.528 1.371-4.757z" fill="#d1836c"/><g><path d="m152.035 180.175c-4.612-.693-8.89-3.363-11.481-7.673-4.608-7.665-2.13-17.615 5.536-22.223l2.09-1.257c2.254-1.355 3.07-4.245 1.859-6.579-4.122-7.938-1.028-17.714 6.91-21.835 7.937-4.121 17.714-1.028 21.835 6.91 9.075 17.478 2.962 39.117-13.916 49.264l-2.09 1.257c-3.356 2.017-7.151 2.676-10.743 2.136z" fill="#d1836c"/></g><path d="m142.371 153.351c.432-2.744.038-5.642-1.34-8.296-3.431-6.608-11.57-9.184-18.178-5.753-1.943 1.009-4.349.329-5.477-1.547l-1.046-1.74c-3.836-6.382-12.12-8.445-18.501-4.609-3.588 2.157-5.81 5.718-6.388 9.558-.45 2.99.099 6.15 1.779 8.943l1.046 1.74c8.447 14.052 26.462 19.141 41.013 11.585 1.264-.656 2.378-1.488 3.334-2.445z" fill="#d1836c"/><path d="m231.887 123.997c.699-1.758 1.691-3.364 2.922-4.752 3.149-3.554 7.827-5.702 12.96-5.44 8.9.455 15.645 8.264 15.337 17.17l-.069 2.001c-.092 2.664 1.929 4.879 4.581 5.149 8.938.91 15.448 8.934 14.453 17.902-.997 8.983-9.588 15.318-18.561 14.229-14.743-1.791-26.639-12.097-31.033-25.585-2.021-5.747-2.427-11.938-1.174-17.9z" fill="#d1836c"/><g><path d="m206.307 198.862h-8.348c-4.142 0-7.5-3.358-7.5-7.5s3.358-7.5 7.5-7.5h8.348c4.142 0 7.5 3.358 7.5 7.5s-3.358 7.5-7.5 7.5z" fill="#d1836c"/></g><g><path d="m322.844 208.88h-22.195c-4.142 0-7.5-3.358-7.5-7.5s3.358-7.5 7.5-7.5h22.195c4.142 0 7.5 3.358 7.5 7.5s-3.358 7.5-7.5 7.5z" fill="#d1836c"/></g><g><path d="m244.373 208.88h-5.676c-4.142 0-7.5-3.358-7.5-7.5s3.358-7.5 7.5-7.5h5.676c4.142 0 7.5 3.358 7.5 7.5s-3.357 7.5-7.5 7.5z" fill="#d1836c"/></g><g><path d="m374.945 195.532h-7.68c-4.142 0-7.5-3.358-7.5-7.5s3.358-7.5 7.5-7.5h7.68c4.142 0 7.5 3.358 7.5 7.5s-3.358 7.5-7.5 7.5z" fill="#d1836c"/></g><g><path d="m124.729 201.41h-14.928c-4.142 0-7.5-3.358-7.5-7.5s3.358-7.5 7.5-7.5h14.928c4.142 0 7.5 3.358 7.5 7.5s-3.358 7.5-7.5 7.5z" fill="#d1836c"/></g></g><g><path d="m326.36 173.044c-4.083-2.255-7.165-6.246-8.094-11.188-1.654-8.789 4.132-17.256 12.922-18.909l2.397-.451c2.585-.486 4.355-2.912 4.031-5.522-1.103-8.876 5.199-16.965 14.075-18.067 8.875-1.103 16.965 5.198 18.067 14.075 2.428 19.543-10.831 37.704-30.185 41.345l-2.397.451c-3.849.725-7.637.022-10.816-1.734z" fill="#d1836c"/></g><path d="m79.734 179.257c0-9.888 2.67-19.494 7.669-28.69-29.927 6.947-54.673 15.759-72.213 25.849-2.437 1.402-2.694 4.795-.52 6.578 15.463 12.672 42.398 23.72 77.089 32.049-7.815-11.305-12.025-23.325-12.025-35.786z" fill="#d1836c"/><g><path d="m81.089 187.856h-7.012c-4.142 0-7.5-3.358-7.5-7.5s3.358-7.5 7.5-7.5h7.012c4.142 0 7.5 3.358 7.5 7.5s-3.358 7.5-7.5 7.5z" fill="#c96f53"/></g></g></svg>