<?xml version="1.0" encoding="iso-8859-1"?>
<!-- Generator: Adobe Illustrator 19.0.0, SVG Export Plug-In . SVG Version: 6.00 Build 0)  -->
<svg version="1.1" id="Capa_1" xmlns="http://www.w3.org/2000/svg" xmlns:xlink="http://www.w3.org/1999/xlink" x="0px" y="0px"
	 viewBox="0 0 458.74 458.74" style="enable-background:new 0 0 458.74 458.74;" xml:space="preserve">
<path style="fill:#F2F2F2;" d="M205.37,40v24c-35.346,0-64,28.654-64,64v66.744c-0.001,14.49,5.755,28.386,16,38.632
	c-10.246,10.242-16.002,24.136-16,38.624v142.4c0.001,11.442,3.712,22.574,10.576,31.728c7.773,10.364,21.846,13.685,33.432,7.888
	c7.555-3.773,16.445-3.773,24,0c12.589,6.299,27.411,6.299,40,0c7.555-3.773,16.445-3.773,24,0
	c11.586,5.797,25.659,2.476,33.432-7.888c6.859-9.156,10.564-20.288,10.56-31.728V272c0.002-14.488-5.754-28.382-16-38.624
	c10.245-10.246,16.001-24.142,16-38.632V128c0-35.346-28.654-64-64-64V40H205.37z"/>
<path style="fill:#77BD63;" d="M205.37,40V16c0-8.837,7.163-16,16-16h16c8.837,0,16,7.163,16,16v24H205.37z"/>
<path style="fill:#5E9F51;" d="M253.37,48h-48c-4.418,0-8-3.582-8-8s3.582-8,8-8h48c4.418,0,8,3.582,8,8S257.788,48,253.37,48z"/>
<path style="fill:#77BD63;" d="M309.37,128c-8.834,8.837-23.159,8.839-31.995,0.005c-0.002-0.002-0.003-0.003-0.005-0.005
	c-8.834-8.837-23.159-8.839-31.995-0.005c-0.002,0.002-0.003,0.003-0.005,0.005c-8.834,8.837-23.159,8.839-31.995,0.005
	c-0.002-0.002-0.003-0.003-0.005-0.005c-8.834-8.837-23.159-8.839-31.995-0.005c-0.002,0.002-0.003,0.003-0.005,0.005
	c-8.834,8.837-23.159,8.839-31.995,0.005c-0.002-0.002-0.003-0.003-0.005-0.005l-7.52-7.52c-0.306,2.495-0.466,5.006-0.48,7.52
	v66.744c-0.001,14.49,5.755,28.386,16,38.632c-10.246,10.242-16.002,24.136-16,38.624v142.4
	c0.002,11.441,3.713,22.574,10.576,31.728c7.773,10.364,21.846,13.685,33.432,7.888c7.555-3.773,16.445-3.773,24,0
	c12.589,6.299,27.411,6.299,40,0c7.555-3.773,16.445-3.773,24,0c11.586,5.797,25.659,2.476,33.432-7.888
	c6.858-9.156,10.563-20.288,10.56-31.728V272c0.002-14.488-5.754-28.382-16-38.624c10.245-10.246,16.001-24.142,16-38.632V128
	c-0.014-2.514-0.174-5.025-0.48-7.52L309.37,128z"/>
<g>
	<path style="fill:#5E9F51;" d="M189.37,264c-2.128,0.02-4.175-0.816-5.68-2.32c-0.702-0.799-1.296-1.687-1.768-2.64
		c-0.38-0.968-0.567-2-0.552-3.04c-0.028-1.049,0.192-2.091,0.64-3.04c0.406-0.969,0.974-1.862,1.68-2.64
		c1.891-1.873,4.59-2.683,7.2-2.16c0.532,0.075,1.049,0.237,1.528,0.48c0.491,0.161,0.951,0.404,1.36,0.72
		c0.458,0.276,0.886,0.598,1.28,0.96c0.706,0.778,1.274,1.671,1.68,2.64c1.723,4.02-0.139,8.676-4.159,10.4
		C191.566,263.794,190.473,264.012,189.37,264L189.37,264z"/>
	<path style="fill:#5E9F51;" d="M245.37,168c-4.374,0.044-7.956-3.465-8-7.839c-0.001-0.054-0.001-0.107,0-0.161
		c-0.028-1.049,0.192-2.091,0.64-3.04c0.406-0.969,0.974-1.862,1.68-2.64c0.765-0.723,1.661-1.293,2.64-1.68
		c2.983-1.216,6.402-0.557,8.72,1.68c0.723,0.765,1.293,1.661,1.68,2.64c1.723,4.02-0.139,8.676-4.159,10.4
		C247.56,167.793,246.47,168.011,245.37,168L245.37,168z"/>
	<path style="fill:#5E9F51;" d="M181.37,192c-2.128,0.02-4.175-0.816-5.68-2.32c-0.704-0.779-1.272-1.672-1.68-2.64
		c-0.41-0.962-0.627-1.995-0.64-3.04c0.009-2.122,0.841-4.158,2.32-5.68l1.192-0.96c0.449-0.302,0.936-0.544,1.448-0.72
		c0.453-0.231,0.939-0.393,1.44-0.48c2.635-0.536,5.364,0.274,7.28,2.16c1.462,1.533,2.291,3.562,2.32,5.68
		c0.044,4.374-3.465,7.956-7.839,8C181.477,192.001,181.424,192.001,181.37,192L181.37,192z"/>
	<path style="fill:#5E9F51;" d="M277.37,200c-4.374,0.044-7.956-3.465-8-7.839c-0.001-0.054-0.001-0.107,0-0.161
		c0.026-2.119,0.855-4.149,2.32-5.68c2.318-2.237,5.737-2.896,8.72-1.68c0.968,0.408,1.861,0.976,2.64,1.68
		c1.462,1.533,2.291,3.562,2.32,5.68c0.044,4.374-3.465,7.956-7.839,8C277.477,200.001,277.424,200.001,277.37,200L277.37,200z"/>
	<path style="fill:#5E9F51;" d="M221.37,224c-2.128,0.02-4.175-0.816-5.68-2.32c-0.704-0.779-1.272-1.672-1.68-2.64
		c-0.854-1.937-0.854-4.143,0-6.08c0.406-0.969,0.974-1.862,1.68-2.64c0.765-0.723,1.661-1.293,2.64-1.68
		c2.979-1.253,6.42-0.59,8.72,1.68c0.706,0.778,1.274,1.671,1.68,2.64c1.275,2.977,0.61,6.43-1.68,8.72
		c-0.779,0.704-1.672,1.272-2.64,1.68C223.448,223.77,222.416,223.987,221.37,224L221.37,224z"/>
	<path style="fill:#5E9F51;" d="M269.37,248c-4.374,0.045-7.956-3.465-8-7.839c-0.011-1.1,0.207-2.19,0.64-3.201
		c0.406-0.969,0.974-1.862,1.68-2.64l1.192-0.96c0.449-0.302,0.936-0.544,1.448-0.72c1.946-0.808,4.134-0.808,6.08,0
		c0.968,0.408,1.861,0.976,2.64,1.68c0.706,0.778,1.274,1.671,1.68,2.64c1.723,4.02-0.139,8.676-4.159,10.4
		C271.56,247.793,270.47,248.011,269.37,248z"/>
	<path style="fill:#5E9F51;" d="M141.37,288h176v128h-176V288z"/>
</g>
<circle style="fill:#FFDB8B;" cx="229.37" cy="352" r="32"/>
<g>
</g>
<g>
</g>
<g>
</g>
<g>
</g>
<g>
</g>
<g>
</g>
<g>
</g>
<g>
</g>
<g>
</g>
<g>
</g>
<g>
</g>
<g>
</g>
<g>
</g>
<g>
</g>
<g>
</g>
</svg>
