<?xml version="1.0"?>
<svg xmlns="http://www.w3.org/2000/svg" xmlns:xlink="http://www.w3.org/1999/xlink" xmlns:svgjs="http://svgjs.com/svgjs" version="1.1" width="512" height="512" x="0" y="0" viewBox="0 0 512 512" style="enable-background:new 0 0 512 512" xml:space="preserve" class=""><g><g xmlns="http://www.w3.org/2000/svg"><g><g><path d="m320 160h-128c-17.673 0-32-14.327-32-32 0-17.673 14.327-32 32-32h128c17.673 0 32 14.327 32 32 0 17.673-14.327 32-32 32z" fill="#fffbdf" data-original="#5faa46" style="" class=""/></g><g><path d="m256 160h-64c-17.673 0-32-14.327-32-32 0-17.673 14.327-32 32-32h64c17.673 0 32 14.327 32 32 0 17.673-14.327 32-32 32z" fill="#fffffb" data-original="#91c83c" style="" class=""/></g></g><g><path d="m376 224h-240c-22.091 0-40-17.909-40-40 0-22.091 17.909-40 40-40h240c22.091 0 40 17.909 40 40 0 22.091-17.909 40-40 40z" fill="#fffbdf" data-original="#5faa46" style="" class=""/></g><g><path d="m216 224h-80c-22.091 0-40-17.909-40-40 0-22.091 17.909-40 40-40h80c22.091 0 40 17.909 40 40 0 22.091-17.909 40-40 40z" fill="#fffffb" data-original="#91c83c" style="" class=""/></g><g><path d="m416 304h-320c-26.51 0-48-21.49-48-48 0-26.51 21.49-48 48-48h320c26.51 0 48 21.49 48 48 0 26.51-21.49 48-48 48z" fill="#fffbdf" data-original="#5faa46" style="" class=""/></g><g><path d="m176 304h-80c-26.51 0-48-21.49-48-48 0-26.51 21.49-48 48-48h80c26.51 0 48 21.49 48 48 0 26.51-21.49 48-48 48z" fill="#fffffb" data-original="#91c83c" style="" class=""/></g><g><g><path d="m368 400h-224c-70.692 0-128-57.307-128-128 0-8.837 7.163-16 16-16h448c8.837 0 16 7.163 16 16 0 70.693-57.307 128-128 128z" fill="#827f6f" data-original="#a5c3dc" style="" class=""/></g><g><path d="m320 272c0-8.836-7.164-16-16-16h-272c-8.837 0-16 7.164-16 16 0 70.692 57.308 128 128 128h48c70.692 0 128-57.308 128-128z" fill="#858673" data-original="#d7e6f0" style="" class=""/></g><g><path d="m352 432h-192c-8.837 0-16-7.163-16-16v-16h224v16c0 8.837-7.163 16-16 16z" fill="#827f6f" data-original="#a5c3dc" style="" class=""/></g><g><path d="m144 384c-28.37 0-55.452-10.667-76.257-30.036-20.695-19.267-33.272-45.317-35.415-73.354-.337-4.405 2.961-8.249 7.367-8.586 4.405-.33 8.25 2.962 8.586 7.367 3.798 49.687 45.843 88.609 95.719 88.609 4.418 0 8 3.582 8 8s-3.582 8-8 8z" fill="#ffffff" data-original="#ffffff" style="" class=""/></g></g><g><g><circle cx="362.829" cy="164" fill="#fffffb" r="4" data-original="#91c83c" style="" class=""/></g><g><circle cx="334.669" cy="150.667" fill="#fffffb" r="4" data-original="#91c83c" style="" class=""/></g><g><circle cx="346.828" cy="221.078" fill="#fffffb" r="4" data-original="#91c83c" style="" class=""/></g><g><circle cx="318.668" cy="196.001" fill="#fffffb" r="4" data-original="#91c83c" style="" class=""/></g><g><circle cx="430.666" cy="228.001" fill="#fffffb" r="4" data-original="#91c83c" style="" class=""/></g><g><circle cx="371.844" cy="235.999" fill="#fffffb" r="4" data-original="#91c83c" style="" class=""/></g></g><g><g><circle cx="324" cy="124" fill="#fffffb" r="4" data-original="#91c83c" style="" class=""/></g><g><circle cx="273.333" cy="228" fill="#fffffb" r="4" data-original="#91c83c" style="" class=""/></g><g><circle cx="291.729" cy="194.411" fill="#fffffb" r="4" data-original="#91c83c" style="" class=""/></g><g><circle cx="263.568" cy="169.334" fill="#fffffb" r="4" data-original="#91c83c" style="" class=""/></g><g><circle cx="331.999" cy="177.477" fill="#fffffb" r="4" data-original="#91c83c" style="" class=""/></g><g><circle cx="316.744" cy="209.332" fill="#fffffb" r="4" data-original="#91c83c" style="" class=""/></g></g></g></g></svg>
