<svg height="512pt" viewBox="-90 0 512 512.00003" width="512pt" xmlns="http://www.w3.org/2000/svg"><path d="m88.382812 87.511719c.609376-23.457031-1.410156-47.765625 5.371094-70.558594 2.664063-8.953125 7.617188-18.148437 18.179688-16.824219 12.949218 1.617188 16.828125 17.730469 30.710937 17.722656 13.085938-.007812 22.953125-.683593 21.847657 15.410157-.835938 12.152343-37.675782 67.054687-37.675782 67.054687zm0 0" fill="#e57670"/><path d="m259.019531 418.273438c21.386719 9.648437 44.582031 17.203124 62.96875 32.285156 7.222657 5.921875 13.777344 14.050781 8.46875 23.277344-6.511719 11.3125-22.867187 8.644531-28.234375 21.445312-5.0625 12.070312-8.261718 21.429688-22.671875 14.175781-10.878906-5.476562-47.226562-60.710937-47.226562-60.710937zm0 0" fill="#e57670"/><path d="m29.550781 97.167969c-27.203125 39.898437-33.449219 89.78125-27.472656 136.835937 4.339844 34.179688 14.496094 67.609375 29.441406 98.636719 7.492188 15.554687 16.207031 30.53125 26.09375 44.6875 22.265625 31.867187 52.3125 60.675781 86.699219 79.097656 26.394531 14.136719 68.90625 27.03125 97.710938 13.183594 41.898437-20.140625 50.382812-69.078125 19.167968-103.097656-15.742187-17.152344-36.734375-28.503907-55.570312-41.78125-46.027344-32.445313-67.078125-91.925781-56.71875-145.660157 3.765625-19.546874 9.496094-39.144531 6.695312-59.242187-4.292968-30.832031-25.90625-52.914063-56.78125-56.996094-31.109375-4.113281-53.675781 11.472657-69.265625 34.335938zm0 0" fill="#d33737"/><path d="m268.652344 447.660156c-.527344-16.925781-7.375-34.222656-20.921875-48.988281-17.535157-19.109375-40.929688-31.75-61.902344-46.535156-51.285156-36.152344-74.726563-102.417969-63.1875-162.277344 4.191406-21.777344 10.574219-43.605469 7.457031-66-4.191406-30.132813-23.25-52.773437-51.101562-60.929687 6.179687-.949219 12.777344-1.019532 19.820312-.09375 30.878906 4.078124 52.488282 26.164062 56.785156 56.988281 2.796876 20.097656-2.925781 39.703125-6.695312 59.242187-10.367188 53.734375 10.6875 113.214844 56.710938 145.660156 18.84375 13.28125 39.835937 24.625 55.570312 41.78125 22.730469 24.773438 24.410156 57.441407 7.464844 81.152344zm0 0" fill="#c42626"/><g fill="#e57670"><path d="m77.640625 275.316406c-1.632813 0-3.273437-.566406-4.597656-1.722656-2.914063-2.539062-3.21875-6.960938-.679688-9.875l21.480469-24.640625c2.539062-2.917969 6.960938-3.21875 9.875-.679687 2.914062 2.539062 3.21875 6.960937.679688 9.875l-21.480469 24.644531c-1.382813 1.585937-3.324219 2.398437-5.277344 2.398437zm0 0"/><path d="m66.898438 201.644531c-1.628907 0-3.269532-.566406-4.59375-1.722656-2.914063-2.539063-3.21875-6.960937-.679688-9.875l21.480469-24.644531c2.539062-2.914063 6.960937-3.21875 9.875-.675782 2.914062 2.539063 3.21875 6.960938.675781 9.875l-21.476562 24.644532c-1.382813 1.585937-3.328126 2.398437-5.28125 2.398437zm0 0"/><path d="m109.941406 344.527344c-1.53125 0-3.070312-.5-4.355468-1.523438-3.023438-2.410156-3.523438-6.816406-1.117188-9.835937l20.367188-25.574219c2.40625-3.023438 6.8125-3.519531 9.835937-1.113281s3.523437 6.8125 1.113281 9.835937l-20.363281 25.570313c-1.382813 1.738281-3.421875 2.640625-5.480469 2.640625zm0 0"/><path d="m156.960938 403.800781c-1.359376 0-2.734376-.398437-3.945313-1.222656-3.191406-2.183594-4.007813-6.539063-1.824219-9.730469l18.453125-26.984375c2.183594-3.191406 6.539063-4.007812 9.730469-1.824219 3.191406 2.179688 4.007812 6.539063 1.824219 9.726563l-18.453125 26.984375c-1.355469 1.984375-3.550782 3.050781-5.785156 3.050781zm0 0"/></g></svg>