<?xml version="1.0"?>
<svg xmlns="http://www.w3.org/2000/svg" xmlns:xlink="http://www.w3.org/1999/xlink" xmlns:svgjs="http://svgjs.com/svgjs" version="1.1" width="512" height="512" x="0" y="0" viewBox="0 0 512 512" style="enable-background:new 0 0 512 512" xml:space="preserve" class=""><g>
<path xmlns="http://www.w3.org/2000/svg" style="" d="M480.5,210.1c-3.02-14.87-10.52-28.8-21.6-39.2c5.7-19.5,3.3-40.5-7.2-58.5  c-10.2-17.7-27.3-30.3-46.8-35.4c-5.1-19.5-17.7-37.6-35.4-47.8c-18-10.5-39-12.9-58.5-7.2C297.2,7.3,276.1,0.1,256,0.1  S214.8,7.3,201,22c-40.2-11.7-83.4,13.3-93.9,55c-41.4,10.2-66,53.1-54,93.9c-11.08,10.4-18.58,24.33-21.6,39.2  c-0.99,4.87-1.5,9.83-1.5,14.8c0,8.4,6.6,15,15,15h422c8.4,0,15-6.6,15-15C482,219.93,481.49,214.97,480.5,210.1z" fill="#ffffff" data-original="#e1e4fb" class=""/>
<path xmlns="http://www.w3.org/2000/svg" style="" d="M482,224.9c0,8.4-6.6,15-15,15H256V0.1c20.1,0,41.2,7.2,55,21.9c19.5-5.7,40.5-3.3,58.5,7.2  c17.7,10.2,30.3,28.3,35.4,47.8c19.5,5.1,36.6,17.7,46.8,35.4c10.5,18,12.9,39,7.2,58.5c11.08,10.4,18.58,24.33,21.6,39.2  C481.49,214.97,482,219.93,482,224.9z" fill="#f5f5f5" data-original="#c5c9f7" class=""/>
<path xmlns="http://www.w3.org/2000/svg" style="" d="M377,419.9H135c-8.4,0-15,6.6-15,15v32c0,24.9,20.1,45,45,45h182c24.9,0,45-20.1,45-45v-32  C392,426.5,385.4,419.9,377,419.9z" fill="#664b34" data-original="#664b34" class=""/>
<path xmlns="http://www.w3.org/2000/svg" style="" d="M497,210.1H15c-8.4,0-15,6.4-15,14.8c0,87.85,45.53,169.44,120,216.03c0.3,0.2,0.6,0.38,0.9,0.57  h270.2c0.3-0.19,0.6-0.37,0.9-0.57c74.47-46.59,120-128.18,120-216.03C512,216.5,505.4,210.1,497,210.1z" fill="#896748" data-original="#896748" class=""/>
<g xmlns="http://www.w3.org/2000/svg">
	<circle style="" cx="317" cy="134.9" r="15" fill="#cccccc" data-original="#a8aff1" class=""/>
	<circle style="" cx="377" cy="164.9" r="15" fill="#cccccc" data-original="#a8aff1" class=""/>
</g>
<circle xmlns="http://www.w3.org/2000/svg" style="" cx="135" cy="134.9" r="15" fill="#f5f5f5" data-original="#c5c9f7" class=""/>
<path xmlns="http://www.w3.org/2000/svg" style="" d="M392,434.9v32c0,24.901-20.099,45-45,45h-91v-92h121C385.401,419.9,392,426.499,392,434.9z" fill="#59422d" data-original="#59422d"/>
<path xmlns="http://www.w3.org/2000/svg" style="" d="M512,224.9c0,87.85-45.53,169.44-120,216.03c-0.3,0.2-0.6,0.38-0.9,0.57H256V210.1h241  C505.4,210.1,512,216.5,512,224.9z" fill="#73553a" data-original="#73553a" class=""/>
<g xmlns="http://www.w3.org/2000/svg">
</g>
<g xmlns="http://www.w3.org/2000/svg">
</g>
<g xmlns="http://www.w3.org/2000/svg">
</g>
<g xmlns="http://www.w3.org/2000/svg">
</g>
<g xmlns="http://www.w3.org/2000/svg">
</g>
<g xmlns="http://www.w3.org/2000/svg">
</g>
<g xmlns="http://www.w3.org/2000/svg">
</g>
<g xmlns="http://www.w3.org/2000/svg">
</g>
<g xmlns="http://www.w3.org/2000/svg">
</g>
<g xmlns="http://www.w3.org/2000/svg">
</g>
<g xmlns="http://www.w3.org/2000/svg">
</g>
<g xmlns="http://www.w3.org/2000/svg">
</g>
<g xmlns="http://www.w3.org/2000/svg">
</g>
<g xmlns="http://www.w3.org/2000/svg">
</g>
<g xmlns="http://www.w3.org/2000/svg">
</g>
</g></svg>
