<?xml version="1.0" encoding="iso-8859-1"?>
<!-- Generator: Adobe Illustrator 19.0.0, SVG Export Plug-In . SVG Version: 6.00 Build 0)  -->
<svg version="1.1" id="Capa_1" xmlns="http://www.w3.org/2000/svg" xmlns:xlink="http://www.w3.org/1999/xlink" x="0px" y="0px"
	 viewBox="0 0 511.997 511.997" style="enable-background:new 0 0 511.997 511.997;" xml:space="preserve">
<path style="fill:#E2E8ED;" d="M372.574,504.487H139.422c-2.761,0-5-2.239-5-5V480.3c0-2.761,2.239-5,5-5h233.153
	c2.761,0,5,2.239,5,5v19.187C377.574,502.248,375.337,504.487,372.574,504.487z"/>
<path style="fill:#6C7782;" d="M226.545,74.584h-59.271V31.5c0-13.248,10.739-23.987,23.987-23.987h11.297
	c13.248,0,23.987,10.739,23.987,23.987V74.584z"/>
<g>
	<circle style="fill:#E2E8ED;" cx="196.839" cy="37.934" r="10.176"/>
	<path style="fill:#E2E8ED;" d="M372.574,103.771H139.422c-2.761,0-5-2.239-5-5V79.584c0-2.761,2.239-5,5-5h233.153
		c2.761,0,5,2.239,5,5v19.187C377.574,101.532,375.337,103.771,372.574,103.771z"/>
</g>
<g>
	<path style="fill:#CFDDE8;" d="M377.574,79.59v19.174c0,2.766-2.243,5.009-5.009,5.009h-65.607V74.582h65.607
		C375.331,74.582,377.574,76.824,377.574,79.59z"/>
	<path style="fill:#CFDDE8;" d="M377.574,480.306v19.174c0,2.766-2.243,5.009-5.009,5.009h-65.607v-29.191h65.607
		C375.331,475.298,377.574,477.54,377.574,480.306z"/>
</g>
<path style="fill:#E03233;" d="M358.557,103.771h-89.582H243.02h-89.581l-30.719,43.987c-0.628,0.899-0.964,1.969-0.964,3.066
	v68.099V360.15v68.099c0,1.096,0.337,2.167,0.964,3.066l30.719,43.985h89.581h25.956h89.582l30.719-43.987
	c0.628-0.899,0.964-1.969,0.964-3.066v-68.099V218.922v-68.099c0-1.097-0.337-2.167-0.964-3.066L358.557,103.771z"/>
<path style="fill:#C31610;" d="M390.243,150.825v277.427c0,1.092-0.341,2.164-0.972,3.065l-30.714,43.977h-51.601l30.724-43.977
	c0.631-0.902,0.962-1.973,0.962-3.065V150.825c0-1.102-0.331-2.174-0.962-3.065l-30.724-43.987h51.601l30.714,43.987
	C389.904,148.652,390.243,149.723,390.243,150.825z"/>
<path style="fill:#E2E8ED;" d="M171.479,148.809c0,0-25.044,57.011-11.019,157.343c0,0,16.028,89.435,11.019,123.102h62.106
	c0,0,13.026-36.705-7.702-123.069c-12.072-50.299-10.645-110.401,6.372-154.031c0.433-1.111,0.876-2.226,1.329-3.345
	L171.479,148.809L171.479,148.809z"/>
<path d="M397.755,148.809c0-2.194-0.946-4.162-2.445-5.535l-22.354-32.01c6.724-0.208,12.133-5.729,12.133-12.502v-19.17
	c0-6.905-5.617-12.522-12.522-12.522H234.058V31.542C234.058,14.15,219.908,0,202.516,0h-11.213
	c-17.392,0-31.542,14.15-31.542,31.542V67.07h-20.33c-6.905,0-12.522,5.617-12.522,12.522v19.169
	c0,6.773,5.409,12.294,12.133,12.502l-22.357,32.013c-1.498,1.373-2.442,3.34-2.442,5.532c0,0.296,0.022,0.586,0.055,0.873
	c-0.033,0.378-0.055,0.758-0.055,1.14v277.425c0,0.193,0.013,0.384,0.022,0.575c-0.008,0.144-0.022,0.286-0.022,0.431
	c0,1.115,0.249,2.169,0.685,3.121c0.387,1.142,0.929,2.232,1.633,3.24l22.481,32.191c-6.724,0.208-12.133,5.729-12.133,12.502
	v19.169c0,6.905,5.617,12.522,12.522,12.522h233.136c6.905,0,12.522-5.617,12.522-12.522v-19.169
	c0-6.773-5.409-12.294-12.133-12.502l22.483-32.195c0.702-1.006,1.243-2.095,1.63-3.234c0.436-0.952,0.686-2.007,0.686-3.123
	c0-0.146-0.014-0.288-0.022-0.431c0.008-0.192,0.022-0.382,0.022-0.575V150.823c0-0.383-0.022-0.762-0.055-1.14
	C397.733,149.396,397.755,149.105,397.755,148.809z M325.621,421.741c-4.15,0-7.513,3.364-7.513,7.513s3.363,7.513,7.513,7.513
	h50.682l-21.663,31.019H157.355l-21.663-31.019h35.786h62.106h40.447c4.15,0,7.513-3.364,7.513-7.513s-3.363-7.513-7.513-7.513
	h-31.029c2.803-16.524,5.374-54.029-9.813-117.309c-4.395-18.312-7.02-38.51-7.589-58.408c-0.119-4.147-3.542-7.398-7.725-7.295
	c-4.147,0.119-7.414,3.578-7.295,7.725c0.608,21.218,3.299,41.904,7.998,61.485c15.636,65.148,11.57,101.344,9.129,113.802h-47.973
	c2.035-38.093-10.962-111.785-11.852-116.77c-11.307-81.08,3.583-133.563,8.798-148.649h46.054
	c-3.79,11.066-6.749,23.176-8.817,36.103c-0.655,4.098,2.135,7.95,6.232,8.606c4.102,0.659,7.951-2.134,8.606-6.232
	c2.245-14.034,5.604-26.958,9.966-38.477h144.008v265.419L325.621,421.741L325.621,421.741z M233.585,141.296h-62.106h-35.082
	l20.959-30.012h197.285l20.959,30.012H233.585z M160.807,156.322c-6.653,21.12-18.648,73.176-7.788,150.87
	c0.013,0.095,0.028,0.191,0.046,0.285c0.148,0.829,13.921,78.3,11.632,114.264H129.27V156.322H160.807z M174.786,31.542
	c0-9.107,7.409-16.516,16.516-16.516h11.213c9.107,0,16.516,7.409,16.516,16.516V67.07h-44.244V31.542H174.786z M141.935,82.097
	h25.339h59.271h143.518v14.161h-11.505H153.439h-11.504V82.097z M370.063,496.974H141.935v-14.161h11.504h205.119h11.505
	L370.063,496.974L370.063,496.974z"/>
<path d="M196.835,20.245c-9.754,0-17.689,7.935-17.689,17.689s7.935,17.689,17.689,17.689s17.689-7.935,17.689-17.689
	S206.589,20.245,196.835,20.245z M196.835,40.597c-1.468,0-2.663-1.195-2.663-2.663c0-1.469,1.195-2.663,2.663-2.663
	s2.663,1.194,2.663,2.663C199.497,39.402,198.303,40.597,196.835,40.597z"/>
<g>
</g>
<g>
</g>
<g>
</g>
<g>
</g>
<g>
</g>
<g>
</g>
<g>
</g>
<g>
</g>
<g>
</g>
<g>
</g>
<g>
</g>
<g>
</g>
<g>
</g>
<g>
</g>
<g>
</g>
</svg>
