<svg id="Capa_1" enable-background="new 0 0 512 512" height="512" viewBox="0 0 512 512" width="512" xmlns="http://www.w3.org/2000/svg"><g><g><path d="m95.396 295.127-84.74 84.74c-4.978 4.978-4.978 13.049 0 18.027 4.978 4.978 13.049 4.978 18.027 0l84.74-84.74z" fill="#e8e4d8"/><path d="m76.534 302.94h32.658v25.494h-32.658z" fill="#d8d4c9" transform="matrix(.707 -.707 .707 .707 -196.026 158.127)"/><path d="m375.687 50.89 19.73-19.73c4.978-4.978 4.978-13.049 0-18.027-4.978-4.978-13.049-4.978-18.027 0l-19.73 19.73z" fill="#e8e4d8"/><g><g><path d="m167.232 172.743c-4.842-4.842-12.985-3.812-16.421 2.112-13.46 23.203-10.265 53.417 9.601 73.283s50.079 23.061 73.283 9.601c5.923-3.436 6.954-11.579 2.112-16.421z" fill="#fe255f"/><path d="m174.63 180.141c-13.761 14.934-13.403 38.199 1.089 52.691s37.757 14.85 52.691 1.089z" fill="#fc9595"/><path d="m228.413 233.919c-14.934 13.762-38.202 13.399-52.689-1.088-2.344-2.344-4.317-4.917-5.915-7.645 14.152 8.321 32.524 6.703 45.038-4.834z" fill="#fd7574"/><path d="m233.688 257.74c-23.199 13.459-53.403 10.265-73.269-9.602-2.955-2.955-5.542-6.15-7.761-9.51 23.162 15.429 54.287 13.91 75.865-4.594l7.282 7.282c4.843 4.843 3.812 12.981-2.117 16.424z" fill="#e01152"/></g><g><path d="m123.991 340.359-55.801-55.801c-7.704-7.704-7.704-20.196 0-27.9l40.606-40.606c7.704-7.704 20.196-7.704 27.9 0l55.801 55.801c7.704 7.704 7.704 20.196 0 27.9l-40.606 40.606c-7.704 7.704-20.195 7.704-27.9 0z" fill="#b55434"/><path d="m167.471 246.825-21.844-21.844c-5.509-5.509-14.441-5.509-19.95 0-5.509 5.509-5.509 14.441 0 19.95l21.844 21.844c5.509 5.509 14.441 5.509 19.95 0 5.509-5.509 5.509-14.441 0-19.95z" fill="#db765a"/><path d="m192.498 299.756-40.602 40.602c-7.707 7.707-20.2 7.7-27.9 0l-34.066-34.066c24.294 7.149 51.636 1.137 70.803-18.03 8.719-8.719 14.717-19.139 17.989-30.181l13.776 13.776c7.701 7.7 7.708 20.192 0 27.899z" fill="#a1412b"/><g fill="#7f392c"><path d="m135.933 310.928c2.432 5.216 8.633 7.473 13.85 5.041l21.953-10.237c5.216-2.432 7.473-8.633 5.041-13.85-2.432-5.216-8.633-7.473-13.85-5.041l-21.953 10.237c-5.216 2.433-7.473 8.633-5.041 13.85z"/><path d="m112.935 287.93c2.432 5.216 8.633 7.473 13.85 5.041l21.953-10.237c5.216-2.432 7.473-8.633 5.041-13.85-2.432-5.216-8.633-7.473-13.85-5.041l-21.953 10.237c-5.216 2.433-7.473 8.634-5.041 13.85z"/><path d="m89.938 264.932c2.432 5.216 8.633 7.473 13.85 5.041l21.953-10.237c5.216-2.432 7.473-8.633 5.041-13.85-2.432-5.216-8.633-7.473-13.85-5.041l-21.953 10.237c-5.217 2.433-7.474 8.634-5.041 13.85z"/></g></g><g><path d="m334.265 130.085-55.801-55.801c-7.704-7.704-7.704-20.196 0-27.9l40.606-40.606c7.704-7.704 20.196-7.704 27.9 0l55.801 55.801c7.704 7.704 7.704 20.196 0 27.9l-40.606 40.606c-7.704 7.705-20.196 7.705-27.9 0z" fill="#b55434"/><path d="m377.744 36.552-21.844-21.844c-5.509-5.509-14.441-5.509-19.95 0-5.509 5.509-5.509 14.441 0 19.95l21.844 21.844c5.509 5.509 14.441 5.509 19.95 0 5.509-5.509 5.509-14.441 0-19.95z" fill="#db765a"/><path d="m402.772 89.483-40.602 40.602c-7.707 7.707-20.2 7.7-27.9 0l-34.066-34.066c24.294 7.149 51.636 1.137 70.803-18.03 8.719-8.719 14.717-19.139 17.989-30.181l13.776 13.776c7.7 7.699 7.707 20.191 0 27.899z" fill="#a1412b"/><g fill="#7f392c"><path d="m346.207 100.654c2.432 5.216 8.633 7.473 13.85 5.041l21.953-10.237c5.216-2.432 7.473-8.633 5.041-13.85-2.432-5.216-8.633-7.473-13.85-5.041l-21.953 10.237c-5.217 2.433-7.474 8.634-5.041 13.85z"/><path d="m323.209 77.656c2.432 5.216 8.633 7.473 13.85 5.041l21.953-10.237c5.216-2.432 7.473-8.633 5.041-13.85-2.432-5.216-8.633-7.473-13.85-5.041l-21.953 10.238c-5.217 2.432-7.473 8.633-5.041 13.849z"/><path d="m300.211 54.658c2.432 5.216 8.633 7.473 13.85 5.041l21.953-10.237c5.216-2.432 7.473-8.633 5.041-13.85-2.432-5.216-8.633-7.473-13.85-5.041l-21.953 10.237c-5.216 2.433-7.473 8.634-5.041 13.85z"/></g></g><g><path d="m246.936 217.414-55.801-55.801c-7.704-7.704-7.704-20.196 0-27.9l40.606-40.606c7.704-7.704 20.196-7.704 27.9 0l55.801 55.801c7.704 7.704 7.704 20.196 0 27.9l-40.606 40.606c-7.704 7.705-20.196 7.705-27.9 0z" fill="#b55434"/><path d="m290.415 123.881-21.844-21.844c-5.509-5.509-14.441-5.509-19.95 0-5.509 5.509-5.509 14.441 0 19.95l21.844 21.844c5.509 5.509 14.441 5.509 19.95 0 5.509-5.509 5.509-14.441 0-19.95z" fill="#db765a"/><path d="m315.443 176.812-40.602 40.602c-7.707 7.707-20.2 7.7-27.9 0l-34.066-34.066c24.294 7.149 51.636 1.137 70.803-18.03 8.719-8.719 14.717-19.139 17.989-30.181l13.776 13.776c7.7 7.699 7.707 20.191 0 27.899z" fill="#a1412b"/><g fill="#7f392c"><path d="m258.878 187.983c2.432 5.216 8.633 7.473 13.85 5.041l21.953-10.237c5.216-2.432 7.473-8.633 5.041-13.85-2.432-5.216-8.633-7.473-13.85-5.041l-21.953 10.237c-5.217 2.433-7.474 8.634-5.041 13.85z"/><path d="m235.88 164.985c2.432 5.217 8.633 7.473 13.85 5.041l21.953-10.237c5.216-2.432 7.473-8.633 5.041-13.85-2.432-5.216-8.633-7.473-13.85-5.041l-21.953 10.237c-5.217 2.433-7.473 8.634-5.041 13.85z"/><path d="m212.882 141.988c2.432 5.217 8.633 7.473 13.85 5.041l21.953-10.237c5.216-2.432 7.473-8.633 5.041-13.85-2.432-5.216-8.633-7.473-13.85-5.041l-21.953 10.237c-5.216 2.432-7.473 8.633-5.041 13.85z"/></g></g><path d="m245.697 251.204-78.348-78.348c-4.739-4.739-6.537-11.675-4.697-18.119l3.079-10.784c1.033-3.617 5.571-4.793 8.23-2.133l78.348 78.348c4.739 4.739 6.537 11.675 4.697 18.119l-3.079 10.784c-1.032 3.616-5.571 4.792-8.23 2.133z" fill="#29e088"/><path d="m220.991 188.849-24.56-24.56c-5.198-5.198-13.626-5.198-18.824 0-5.198 5.198-5.198 13.626 0 18.824l24.56 24.56c5.198 5.198 13.626 5.198 18.824 0 5.198-5.198 5.198-13.626 0-18.824z" fill="#79ff79"/><g><path d="m331.716 165.185-78.348-78.348c-4.739-4.739-6.537-11.675-4.697-18.119l3.079-10.784c1.033-3.617 5.571-4.793 8.23-2.133l78.348 78.348c4.739 4.739 6.537 11.675 4.697 18.119l-3.079 10.784c-1.033 3.616-5.571 4.792-8.23 2.133z" fill="#29e088"/><path d="m307.009 102.83-24.56-24.56c-5.198-5.198-13.626-5.198-18.824 0-5.198 5.198-5.198 13.626 0 18.824l24.56 24.56c5.198 5.198 13.626 5.198 18.824 0 5.199-5.198 5.199-13.626 0-18.824z" fill="#79ff79"/></g></g></g><g><path d="m398.577 198.846 84.74-84.74c4.978-4.978 13.049-4.978 18.027 0 4.978 4.978 4.978 13.049 0 18.027l-84.74 84.74z" fill="#e8e4d8"/><path d="m402.808 183.566h32.658v25.494h-32.658z" fill="#d8d4c9" transform="matrix(.707 -.707 .707 .707 -16.052 353.873)"/><path d="m154.34 479.138-19.73 19.73c-4.978 4.978-13.049 4.978-18.027 0-4.978-4.978-4.978-13.049 0-18.027l19.73-19.73z" fill="#e8e4d8"/><g><g><path d="m276.193 270.682c-4.842-4.842-3.812-12.985 2.112-16.421 23.203-13.46 53.417-10.265 73.283 9.601s23.061 50.079 9.601 73.283c-3.436 5.923-11.579 6.954-16.421 2.112z" fill="#fe255f"/><path d="m283.591 278.08c14.934-13.761 38.199-13.403 52.691 1.089s14.85 37.757 1.089 52.691z" fill="#fc9595"/><path d="m337.369 331.863c13.762-14.934 13.399-38.202-1.088-52.689-2.344-2.344-4.917-4.317-7.645-5.915 8.321 14.152 6.703 32.524-4.834 45.038z" fill="#fd7574"/><path d="m361.19 337.138c13.459-23.199 10.265-53.403-9.602-73.269-2.955-2.955-6.15-5.542-9.51-7.761 15.429 23.162 13.91 54.287-4.594 75.865l7.282 7.282c4.843 4.843 12.981 3.812 16.424-2.117z" fill="#e01152"/></g><g><path d="m443.809 227.442-55.801-55.801c-7.704-7.704-20.196-7.704-27.9 0l-40.606 40.606c-7.704 7.704-7.704 20.196 0 27.9l55.801 55.801c7.704 7.704 20.196 7.704 27.9 0l40.606-40.606c7.704-7.705 7.704-20.196 0-27.9z" fill="#b55434"/><path d="m350.275 270.921-21.844-21.844c-5.509-5.509-5.509-14.441 0-19.95 5.509-5.509 14.441-5.509 19.95 0l21.844 21.844c5.509 5.509 5.509 14.441 0 19.95-5.508 5.509-14.44 5.509-19.95 0z" fill="#db765a"/><path d="m403.206 295.948 40.602-40.602c7.707-7.707 7.7-20.2 0-27.9l-34.066-34.066c7.149 24.294 1.137 51.636-18.03 70.803-8.719 8.719-19.139 14.717-30.181 17.989l13.776 13.776c7.7 7.701 20.192 7.708 27.899 0z" fill="#a1412b"/><g fill="#7f392c"><path d="m414.378 239.383c5.216 2.432 7.473 8.633 5.041 13.85l-10.237 21.953c-2.432 5.216-8.633 7.473-13.85 5.041-5.216-2.432-7.473-8.633-5.041-13.85l10.237-21.953c2.433-5.216 8.633-7.473 13.85-5.041z"/><path d="m391.38 216.385c5.216 2.432 7.473 8.633 5.041 13.85l-10.237 21.953c-2.432 5.216-8.633 7.473-13.85 5.041-5.216-2.432-7.473-8.633-5.041-13.85l10.237-21.953c2.433-5.216 8.634-7.473 13.85-5.041z"/><path d="m368.382 193.388c5.216 2.432 7.473 8.633 5.041 13.85l-10.237 21.953c-2.432 5.216-8.633 7.473-13.85 5.041-5.216-2.432-7.473-8.633-5.041-13.85l10.237-21.953c2.433-5.217 8.634-7.474 13.85-5.041z"/></g></g><g><path d="m233.535 437.715-55.801-55.801c-7.704-7.704-20.196-7.704-27.9 0l-40.606 40.606c-7.704 7.704-7.704 20.196 0 27.9l55.801 55.801c7.704 7.704 20.196 7.704 27.9 0l40.606-40.606c7.705-7.704 7.705-20.195 0-27.9z" fill="#b55434"/><path d="m140.002 481.194-21.844-21.844c-5.509-5.509-5.509-14.441 0-19.95 5.509-5.509 14.441-5.509 19.95 0l21.844 21.844c5.509 5.509 5.509 14.441 0 19.95-5.509 5.509-14.441 5.509-19.95 0z" fill="#db765a"/><path d="m192.933 506.222 40.602-40.602c7.707-7.707 7.7-20.2 0-27.9l-34.066-34.066c7.149 24.294 1.137 51.636-18.03 70.803-8.719 8.719-19.139 14.717-30.181 17.989l13.776 13.776c7.699 7.7 20.191 7.707 27.899 0z" fill="#a1412b"/><g fill="#7f392c"><path d="m204.104 449.657c5.217 2.432 7.473 8.633 5.041 13.85l-10.237 21.953c-2.432 5.216-8.633 7.473-13.85 5.041-5.216-2.432-7.473-8.633-5.041-13.85l10.237-21.953c2.433-5.217 8.634-7.474 13.85-5.041z"/><path d="m181.106 426.659c5.217 2.432 7.473 8.633 5.041 13.85l-10.237 21.953c-2.432 5.216-8.633 7.473-13.85 5.041-5.216-2.432-7.473-8.633-5.041-13.85l10.237-21.953c2.433-5.216 8.634-7.473 13.85-5.041z"/><path d="m158.109 403.661c5.216 2.432 7.473 8.633 5.041 13.85l-10.237 21.953c-2.432 5.216-8.633 7.473-13.85 5.041-5.216-2.432-7.473-8.633-5.041-13.85l10.237-21.953c2.432-5.216 8.633-7.473 13.85-5.041z"/></g></g><g><path d="m320.864 350.386-55.801-55.801c-7.704-7.704-20.196-7.704-27.9 0l-40.606 40.606c-7.704 7.704-7.704 20.196 0 27.9l55.801 55.801c7.704 7.704 20.196 7.704 27.9 0l40.606-40.606c7.705-7.704 7.705-20.195 0-27.9z" fill="#b55434"/><path d="m227.331 393.865-21.844-21.844c-5.509-5.509-5.509-14.441 0-19.95 5.509-5.509 14.441-5.509 19.95 0l21.844 21.844c5.509 5.509 5.509 14.441 0 19.95-5.509 5.509-14.441 5.509-19.95 0z" fill="#db765a"/><path d="m280.262 418.893 40.602-40.602c7.707-7.707 7.7-20.2 0-27.9l-34.066-34.066c7.149 24.294 1.137 51.636-18.03 70.803-8.719 8.719-19.139 14.717-30.181 17.989l13.776 13.776c7.699 7.7 20.191 7.707 27.899 0z" fill="#a1412b"/><g fill="#7f392c"><path d="m291.433 362.328c5.216 2.432 7.473 8.633 5.041 13.85l-10.237 21.953c-2.432 5.216-8.633 7.473-13.85 5.041-5.216-2.432-7.473-8.633-5.041-13.85l10.237-21.953c2.433-5.217 8.634-7.474 13.85-5.041z"/><path d="m268.435 339.33c5.216 2.432 7.473 8.633 5.041 13.85l-10.237 21.953c-2.432 5.216-8.633 7.473-13.85 5.041-5.216-2.432-7.473-8.633-5.041-13.85l10.237-21.953c2.433-5.217 8.634-7.473 13.85-5.041z"/><path d="m245.438 316.332c5.216 2.432 7.473 8.633 5.041 13.85l-10.237 21.953c-2.432 5.216-8.633 7.473-13.85 5.041-5.216-2.432-7.473-8.633-5.041-13.85l10.237-21.953c2.432-5.216 8.633-7.473 13.85-5.041z"/></g></g><path d="m354.654 349.147-78.348-78.348c-4.739-4.739-11.675-6.537-18.119-4.697l-10.784 3.079c-3.617 1.033-4.793 5.571-2.133 8.23l78.348 78.348c4.739 4.739 11.675 6.537 18.119 4.697l10.784-3.079c3.616-1.032 4.792-5.57 2.133-8.23z" fill="#29e088"/><path d="m292.299 324.441-24.56-24.56c-5.198-5.198-5.198-13.626 0-18.824 5.198-5.198 13.626-5.198 18.824 0l24.56 24.56c5.198 5.198 5.198 13.626 0 18.824-5.198 5.198-13.626 5.198-18.824 0z" fill="#79ff79"/><g><path d="m268.635 435.166-78.348-78.348c-4.739-4.739-11.675-6.537-18.119-4.697l-10.784 3.079c-3.617 1.033-4.793 5.571-2.133 8.23l78.348 78.348c4.739 4.739 11.675 6.537 18.119 4.697l10.784-3.079c3.616-1.032 4.792-5.57 2.133-8.23z" fill="#29e088"/><path d="m206.28 410.46-24.56-24.56c-5.198-5.198-5.198-13.626 0-18.824 5.198-5.198 13.626-5.198 18.824 0l24.56 24.56c5.198 5.198 5.198 13.626 0 18.824-5.198 5.198-13.626 5.198-18.824 0z" fill="#79ff79"/></g></g></g></g></svg>