<svg id="Capa_1" enable-background="new 0 0 512 512" height="512" viewBox="0 0 512 512" width="512" xmlns="http://www.w3.org/2000/svg"><g><path d="m314.1 108.2h-116.2l-43.3 67.3h202.8z" fill="#c27e4e"/><path d="m314.1 108.2h-29.2l43.4 67.3h29.1z" fill="#b36d3c"/><g><path d="m314.1 108.2-26.9-41.6h-62.4l-26.9 41.6z" fill="#91dafa"/><path d="m358.4 402.1c-11.6-16.7-16.9-36.5-15.5-56h-173.8c1.4 19.5-3.8 39.3-15.5 56-7.1 10.1-10.9 22.2-10.9 34.5v54.5c0 11.5 9.3 20.8 20.8 20.8h92.5 92.5c11.5 0 20.8-9.3 20.8-20.8v-54.5c0-12.3-3.8-24.4-10.9-34.5z" fill="#c27e4e"/></g><path d="m297.6 33.3h-83.3c-4.6 0-8.3-3.7-8.3-8.3v-16.7c0-4.6 3.7-8.3 8.3-8.3h83.3c4.6 0 8.3 3.7 8.3 8.3v16.7c.1 4.6-3.7 8.3-8.3 8.3z" fill="#61a2f9"/><path d="m287.2 66.6h-62.4c-5.7 0-10.4-4.7-10.4-10.4v-22.9h83.3v22.9c-.1 5.7-4.7 10.4-10.5 10.4z" fill="#e6f7fe"/><path d="m273.7 33.3v22.9c0 5.7-4.7 10.4-10.4 10.4h23.9c5.7 0 10.4-4.7 10.4-10.4v-22.9z" fill="#d3effd"/><path d="m297.6 0h-25c4.6 0 8.3 3.7 8.3 8.3v16.7c0 4.6-3.7 8.3-8.3 8.3h25c4.6 0 8.3-3.7 8.3-8.3v-16.7c.1-4.6-3.7-8.3-8.3-8.3z" fill="#5490f9"/><path d="m358.4 402.1c-11.6-16.7-16.9-36.5-15.5-56h-29.1c-1.4 19.5 3.8 39.3 15.5 56 7.1 10.1 10.9 22.2 10.9 34.5v54.5c0 11.5-9.3 20.8-20.8 20.8h29.1c11.5 0 20.8-9.3 20.8-20.8v-54.5c0-12.3-3.8-24.4-10.9-34.5z" fill="#b36d3c"/><path d="m369.3 261v-52.5c0-2.7-.2-5.3-.6-7.9-1.1-6.8-3.6-13.3-7.3-19.2l-3.9-6h-202.9l-3.9 6c-5.2 8.1-8 17.5-8 27.1v27.4 30.7c0 10.5 2.7 20.8 7.9 29.9l7.2 12.5c.7 1.2 1.4 2.5 2 3.7 5.4 10.6 8.5 21.9 9.3 33.4h173.8c.9-12.8 4.6-25.5 11.3-37.1l7.2-12.5c5.2-9.1 7.9-19.4 7.9-29.9z" fill="#61a2f9"/><path d="m368.6 200.6c-1.1-6.8-3.6-13.3-7.3-19.2l-3.9-6h-29.1l3.9 6c5.2 8.1 8 17.5 8 27.1v9.5 48.6c0 3.2-.3 6.4-.8 9.5-1.1 7.2-3.6 14.1-7.2 20.4l-7.2 12.5c-6.6 11.6-10.4 24.3-11.3 37.1h29.1c.9-12.8 4.6-25.5 11.3-37.1l7.2-12.5c5.2-9.1 7.9-19.4 7.9-29.9v-5.6-52.5c.1-2.6-.2-5.3-.6-7.9z" fill="#5490f9"/></g></svg>