<svg id="Capa_1" enable-background="new 0 0 509.404 509.404" height="512" viewBox="0 0 509.404 509.404" width="512" xmlns="http://www.w3.org/2000/svg"><g><path d="m113.692 30-23.99 71.971 90 15 75-15 10-21.235-10-50.736-70.505-10z" fill="#f6eef5"/><path d="m254.702 101.971 90 15c4.416-.884 70.577-14.115 75-15l-23.99-71.971-80.273-10-60.736 10v71.971z" fill="#e9e6f1"/><path d="m254.702 0h-131.01l-10 30h141.01l10-15z" fill="#e9e6f1"/><path d="m254.702 0v30h141.01l-10-30z" fill="#d8d6e6"/><path d="m89.702 101.971v77.433l15 45-15 60v122.435l75 12.565 90-12.565 15-137.435-15-167.433z" fill="#badd39"/><path d="m419.702 101.971h-165v304.868l75 12.565 90-12.565v-77.435l-15-60 15-45z" fill="#90cb1b"/><path d="m89.702 179.404v105c62.09.671 76.788-1.777 105 2.963l15-47.963-15-57.037c-28.103-4.721-42.606-2.289-105-2.963z" fill="#6aa9ff"/><path d="m194.702 182.367v105c20.794 3.494 41.023 10.049 60 19.537l15-52.5-15-52.5c-18.976-9.488-39.206-16.043-60-19.537z" fill="#81dfff"/><path d="m314.702 326.441 15-42.037-15-62.963c-20.794-3.494-41.023-10.049-60-19.537v105c18.977 9.489 39.206 16.043 60 19.537z" fill="#6aa9ff"/><path d="m314.702 221.441v105c28.094 4.721 42.577 2.289 105 2.963v-105c-62.09-.671-76.788 1.778-105-2.963z" fill="#636ef0"/><path d="m254.702 406.839h-165l24.522 73.565 68.052 10 72.426-10 10-36.783z" fill="#f6eef5"/><path d="m395.18 480.404 24.522-73.565h-165v73.565l66.333 10z" fill="#e9e6f1"/><path d="m254.702 509.404 10-14.5-10-14.5h-140.478l9.667 29z" fill="#e9e6f1"/><path d="m254.702 509.404h130.812l9.666-29h-140.478z" fill="#d8d6e6"/></g></svg>