<svg id="line_color" height="512" viewBox="0 0 74 74" width="512" xmlns="http://www.w3.org/2000/svg" data-name="line color"><path d="m62.348 49.06a5.923 5.923 0 0 0 5.911 5.925 6.118 6.118 0 0 0 .716-.042v10.457a3.65 3.65 0 0 1 -3.65 3.65h-56.825a3.65 3.65 0 0 1 -3.65-3.65v-22.742a5.658 5.658 0 1 0 0-11.316v-22.742a3.65 3.65 0 0 1 3.65-3.654h21.3a4.644 4.644 0 0 0 9.267 0h26.258a3.65 3.65 0 0 1 3.65 3.65v34.596a6.136 6.136 0 0 0 -.716-.042 5.911 5.911 0 0 0 -5.911 5.91z" fill="#fcd462"/><g fill="#f7be56"><path d="m66.618 64.974h-61.764v.426a3.65 3.65 0 0 0 3.646 3.654h56.82a3.624 3.624 0 0 0 1.293-.247z"/><path d="m62.348 49.06a5.884 5.884 0 0 1 .5-2.382 5.92 5.92 0 0 0 2.291 11.375 6.109 6.109 0 0 0 .716-.042v10.46a3.621 3.621 0 0 1 -.054.535 3.639 3.639 0 0 0 3.17-3.6v-10.463a6.109 6.109 0 0 1 -.716.042 5.923 5.923 0 0 1 -5.907-5.925z"/><path d="m68.975 8.6v34.6a6.091 6.091 0 0 0 -.717-.047 5.775 5.775 0 0 0 -2.4.519v-35.072a3.654 3.654 0 0 0 -3.658-3.651h3.121a3.646 3.646 0 0 1 3.654 3.651z"/><circle cx="23.69" cy="22.17" r="3.773"/><circle cx="50.013" cy="52.325" r="3.773"/><circle cx="36.914" cy="37.709" r="2.359"/><circle cx="22.637" cy="56.525" r="3.773"/><circle cx="51.978" cy="18.397" r="3.408"/></g><path d="m59.231 72.383h-11a.5.5 0 0 1 0-1h11a.5.5 0 0 1 0 1z" fill="#323c6b"/><path d="m45.44 72.383h-1.178a.5.5 0 0 1 0-1h1.178a.5.5 0 0 1 0 1z" fill="#323c6b"/><path d="m2.025 13a.5.5 0 0 1 -.5-.5v-.619a.5.5 0 0 1 1 0v.619a.5.5 0 0 1 -.5.5z" fill="#323c6b"/><path d="m2.025 9.859a.5.5 0 0 1 -.5-.5v-.759a6.987 6.987 0 0 1 6.975-6.983.5.5 0 0 1 0 1 5.986 5.986 0 0 0 -5.975 5.983v.762a.5.5 0 0 1 -.5.497z" fill="#323c6b"/><path d="m65.324 69.554h-56.824a4.155 4.155 0 0 1 -4.15-4.15v-22.746a.5.5 0 0 1 .5-.5 5.158 5.158 0 1 0 0-10.316.5.5 0 0 1 -.5-.5v-22.742a4.155 4.155 0 0 1 4.15-4.154h21.3a.5.5 0 0 1 .5.465 4.144 4.144 0 0 0 8.269 0 .5.5 0 0 1 .5-.465h26.255a4.155 4.155 0 0 1 4.15 4.15v34.6a.5.5 0 0 1 -.559.5 5.586 5.586 0 0 0 -.657-.039 5.418 5.418 0 0 0 0 10.836 5.722 5.722 0 0 0 .658-.039.507.507 0 0 1 .39.123.5.5 0 0 1 .168.374v10.449a4.155 4.155 0 0 1 -4.15 4.154zm-59.97-26.416v22.262a3.154 3.154 0 0 0 3.15 3.15h56.82a3.154 3.154 0 0 0 3.15-3.15v-9.918a6.418 6.418 0 1 1 0-12.829v-34.053a3.154 3.154 0 0 0 -3.15-3.15h-25.809a5.144 5.144 0 0 1 -10.157 0h-20.858a3.154 3.154 0 0 0 -3.146 3.15v22.262a6.159 6.159 0 0 1 0 12.276z" fill="#323c6b"/><path d="m12.06 31.46a.887.887 0 0 1 -.24-.61.912.912 0 0 1 1.55-.65l.03.03.69.97a.91.91 0 0 1 -.76 1.41h-.11a.918.918 0 0 1 -.65-.41z" fill="#fff"/><path d="m15.72 37.29a11.253 11.253 0 0 1 -2.96 7.61.91.91 0 0 1 -.67.3.9.9 0 0 1 -.61-.24.916.916 0 0 1 -.06-1.29 9.375 9.375 0 0 0 2.11-8.96.877.877 0 0 1 .08-.69.916.916 0 0 1 .55-.43.9.9 0 0 1 1.12.63 11.385 11.385 0 0 1 .44 3.07z" fill="#fff"/></svg>